<?xml version="1.0" encoding="iso-8859-1"?>
<!-- Generator: Adobe Illustrator 19.0.0, SVG Export Plug-In . SVG Version: 6.00 Build 0)  -->
<svg version="1.1" id="Layer_1" xmlns="http://www.w3.org/2000/svg" xmlns:xlink="http://www.w3.org/1999/xlink" x="0px" y="0px"
	 viewBox="0 0 512 512" style="enable-background:new 0 0 512 512;" xml:space="preserve">
<g>
	<rect x="10.199" y="32.127" style="fill:#EDB2D8;" width="491.602" height="358.9"/>
	<rect x="208.064" y="391.027" style="fill:#EDB2D8;" width="95.873" height="88.845"/>
</g>
<rect x="48.956" y="72.3" style="fill:#74C1F2;" width="414.088" height="278.55"/>
<path d="M348.813,490.072c5.632,0,10.199-4.567,10.199-10.199c0-5.632-4.567-10.199-10.199-10.199h-34.677v-68.449h187.665
	c5.632,0,10.199-4.567,10.199-10.199V32.127c0-5.632-4.567-10.199-10.199-10.199H10.199C4.567,21.928,0,26.495,0,32.127v358.898
	c0,5.632,4.567,10.199,10.199,10.199h187.665v68.449h-34.677c-5.632,0-10.199,4.567-10.199,10.199
	c0,5.632,4.567,10.199,10.199,10.199H348.813z M293.737,469.673h-75.474v-68.449h75.474V469.673z M20.398,380.826V42.327h471.203
	v338.499H20.398z"/>
<path d="M48.956,361.052h414.088c5.632,0,10.199-4.567,10.199-10.199V72.3c0-5.632-4.567-10.199-10.199-10.199H48.956
	c-5.632,0-10.199,4.567-10.199,10.199v278.552C38.757,356.485,43.324,361.052,48.956,361.052z M59.155,82.499h393.689v258.154
	H59.155V82.499z"/>
<path d="M331.474,309.036h-11.219c-5.632,0-10.199,4.567-10.199,10.199c0,5.632,4.567,10.199,10.199,10.199h11.219
	c5.632,0,10.199-4.567,10.199-10.199C341.673,313.603,337.106,309.036,331.474,309.036z"/>
<path d="M428.367,309.036h-66.295c-5.632,0-10.199,4.567-10.199,10.199c0,5.632,4.567,10.199,10.199,10.199h66.295
	c5.632,0,10.199-4.567,10.199-10.199C438.566,313.603,433.999,309.036,428.367,309.036z"/>
<path d="M206.024,136.669c-5.632,0-10.199,4.567-10.199,10.199c0,17.435-14.183,31.618-31.618,31.618s-31.618-14.183-31.618-31.618
	c0-5.632-4.567-10.199-10.199-10.199s-10.199,4.567-10.199,10.199c0,28.681,23.335,52.016,52.016,52.016
	s52.016-23.335,52.016-52.016C216.223,141.237,211.656,136.669,206.024,136.669z"/>
<path d="M399.809,146.869c0-5.632-4.567-10.199-10.199-10.199c-5.632,0-10.199,4.567-10.199,10.199
	c0,17.435-14.183,31.618-31.618,31.618s-31.618-14.183-31.618-31.618c0-5.632-4.567-10.199-10.199-10.199
	s-10.199,4.567-10.199,10.199c0,28.681,23.335,52.016,52.016,52.016S399.809,175.55,399.809,146.869z"/>
<g>
</g>
<g>
</g>
<g>
</g>
<g>
</g>
<g>
</g>
<g>
</g>
<g>
</g>
<g>
</g>
<g>
</g>
<g>
</g>
<g>
</g>
<g>
</g>
<g>
</g>
<g>
</g>
<g>
</g>
</svg>
